<svg xmlns="http://www.w3.org/2000/svg" width="618" height="528" viewBox="0 0 618 528"><defs><clipPath id="9dz6a"><path d="M504.35 53.8h119.268v118.693H504.35z"/></clipPath><clipPath id="9dz6b"><path d="M382 168.71h142.284v141.874H382z"/></clipPath><clipPath id="9dz6c"><path d="M402-13.29h142.284v141.874H402z"/></clipPath></defs><g><g clip-path="url(#clip-F8126F7F-200B-49B6-995A-D6AAA84AB9BB)" opacity=".3"><g opacity=".3"><g opacity=".3"/><g clip-path="url(#9dz6a)" opacity=".3"><path fill="#fff" d="M505.06 172.493a.706.706 0 0 1-.502-1.206l117.85-117.28a.71.71 0 0 1 1.002 0 .701.701 0 0 1 0 .998L505.562 172.287a.714.714 0 0 1-.502.206"/></g></g><g opacity=".3"><g opacity=".3"/><g clip-path="url(#9dz6b)" opacity=".3"><path fill="#fff" d="M382.708 310.584a.707.707 0 0 1-.501-1.206l140.87-140.462a.71.71 0 0 1 1 0 .705.705 0 0 1 0 .999L383.21 310.378a.712.712 0 0 1-.5.206"/></g></g><g opacity=".3"><path fill="#fff" d="M468.702 251a.703.703 0 0 1-.496-1.198l34.596-34.596a.7.7 0 0 1 .992 0 .7.7 0 0 1 0 .992l-34.596 34.597a.704.704 0 0 1-.496.205"/></g><g opacity=".3"><path fill="#fff" d="M523.695 260a.697.697 0 0 1-.492-1.187l19.611-19.61a.695.695 0 0 1 .983.983l-19.61 19.611a.698.698 0 0 1-.492.203"/></g></g><g opacity=".18"><path fill="#ababab" d="M44 454l-3 2.503V500l3-2.504z"/></g><g opacity=".18"><path fill="#ababab" d="M37 460v43.496L34 506v-43.497z"/></g><g opacity=".18"><path fill="#ababab" d="M31 466v43.496L28 512v-43.496z"/></g><g opacity=".18"><path fill="#ababab" d="M25 473v43.496L22 519v-43.496z"/></g><g opacity=".18"><path fill="#ababab" d="M19 479v43.496L16 525v-43.497z"/></g><g opacity=".18"><path fill="#ababab" d="M13 485v43.496L10 531v-43.497z"/></g><g opacity=".18"><path fill="#ababab" d="M7 491v43.497L4 537v-43.497z"/></g><g opacity=".18"><path fill="#ababab" d="M1 497v43.496L-2 543v-43.496z"/></g><g opacity=".2"><g opacity=".2"/><g clip-path="url(#9dz6c)" opacity=".2"><path fill="#fff" d="M402.708 128.584a.707.707 0 0 1-.501-1.206l140.87-140.462a.71.71 0 0 1 1 0 .705.705 0 0 1 0 .999L403.21 128.378a.712.712 0 0 1-.5.206"/></g></g><g opacity=".2"><path fill="#fff" d="M488.702 69a.703.703 0 0 1-.496-1.198l34.596-34.596a.7.7 0 0 1 .992 0 .7.7 0 0 1 0 .992l-34.596 34.597a.704.704 0 0 1-.496.205"/></g><g opacity=".2"><path fill="#fff" d="M543.695 78a.697.697 0 0 1-.492-1.187l19.611-19.61a.695.695 0 0 1 .983.983l-19.61 19.611a.698.698 0 0 1-.492.203"/></g><g opacity=".2"><path fill="#fff" d="M459.82 338l-77 76.994V456l77-76.994z"/></g></g></svg>