<svg xmlns="http://www.w3.org/2000/svg" width="78" height="27" viewBox="0 0 78 27"><g><g><g/><g><g><path fill="#4d4d60" d="M21.55 16.682c0 2.043-1.463 3.065-4.39 3.065h-6.544v-1.78H17.1c.87 0 1.505-.126 1.905-.379.4-.253.601-.555.601-.906v-5.817c0-.363-.2-.667-.6-.915-.4-.247-1.036-.37-1.906-.37H10.5V7.8h6.66c2.927 0 4.39 1.021 4.39 3.065z"/></g><g><path fill="#4d4d60" d="M24.694 19.042c0 .319-.08.528-.238.627-.158.098-.395.148-.712.148-.316 0-.55-.05-.704-.148-.153-.1-.23-.308-.23-.627v-7.778c0-.318.077-.527.23-.626.153-.099.388-.148.704-.148.317 0 .554.05.712.148.158.1.238.308.238.626z"/></g><g><path fill="#4d4d60" d="M35.877 17.898h-5.658c-.831 0-1.435-.115-1.811-.346-.377-.232-.565-.518-.565-.859V13.31c0-.33.188-.613.565-.85.376-.236.98-.355 1.811-.355h3.282c.831 0 1.435.119 1.811.355.376.237.565.52.565.85zm-4.015 4.555h2.047c1.246 0 2.197-.237 2.855-.71.657-.472.986-1.186.986-2.141v-6.295c0-1.911-1.399-2.867-4.197-2.867h-3.396c-2.798 0-4.197.956-4.197 2.867v3.345c0 1.912 1.399 2.867 4.197 2.867h5.71v.083c0 .384-.144.678-.43.881-.287.203-.797.305-1.528.305h-2.047c-.227 0-.373.069-.437.206-.064.137-.096.343-.096.618 0 .275.032.483.096.626.064.143.21.214.437.214z"/></g><g><path fill="#006cb5" d="M40.908 14.754v1.928c0 .351.197.653.593.906.395.253 1.028.379 1.898.379h7.089c.237 0 .393.074.467.222.074.149.111.371.111.668 0 .285-.037.505-.11.659-.075.154-.23.23-.468.23H43.34c-2.927 0-4.39-1.02-4.39-3.064v-5.817c0-2.043 1.463-3.065 4.39-3.065h2.21c.227 0 .378.074.452.222.074.149.111.371.111.668 0 .296-.037.519-.111.667-.074.149-.225.223-.453.223H43.4c-.87 0-1.503.123-1.898.37-.396.248-.593.553-.593.915v2.11h9.625c.237 0 .393.073.467.221.074.149.111.371.111.668 0 .296-.037.519-.111.667-.074.149-.23.223-.467.223h-9.625z"/></g><g><path fill="#006cb5" d="M56.377 19.75c-2.798 0-4.197-.956-4.197-2.867v-3.576c0-1.911 1.4-2.867 4.197-2.867h7.415c.227 0 .376.069.445.206.07.137.104.349.104.634 0 .275-.035.481-.104.618-.07.138-.218.206-.445.206h-7.356c-.83 0-1.433.116-1.809.346-.376.231-.564.517-.564.857v3.576c0 .33.188.612.564.849.376.236.979.354 1.81.354h7.4c.227 0 .373.069.437.206.064.137.096.343.096.618 0 .274-.032.483-.096.626-.064.143-.21.214-.438.214h-7.46z"/></g><g><path fill="#006cb5" d="M72.971 18.096h-3.915c-.83 0-1.433-.119-1.809-.355-.376-.237-.564-.521-.564-.851v-.943c0-.341.188-.628.564-.86.376-.23.979-.346 1.81-.346h6.287v2.149c0 .33-.188.614-.563.85-.376.238-.98.356-1.81.356zm-3.974 1.654h4.034c2.798 0 4.197-.956 4.197-2.867v-3.576c0-1.911-1.4-2.867-4.197-2.867h-1.454c-.227 0-.375.069-.445.206-.069.137-.103.349-.103.634 0 .275.034.481.103.618.07.138.218.206.445.206h1.394c.84 0 1.446.09 1.817.272.37.182.556.431.556.75v.016h-6.347c-2.798 0-4.197.956-4.197 2.868v.873c0 1.912 1.399 2.867 4.197 2.867z"/></g><g><path fill="#2b2b2a" d="M72.349 26.238c.085.056.17.098.253.126a.762.762 0 0 0 .238.04.468.468 0 0 0 .216-.04.133.133 0 0 0 .079-.126.122.122 0 0 0-.036-.09.32.32 0 0 0-.092-.062.958.958 0 0 0-.123-.049 1.593 1.593 0 0 1-.303-.137.513.513 0 0 1-.127-.11.444.444 0 0 1-.078-.146.637.637 0 0 1-.027-.195c0-.103.02-.192.06-.266a.526.526 0 0 1 .163-.182.71.71 0 0 1 .233-.104c.087-.022.178-.033.273-.033a1.539 1.539 0 0 1 .45.073v.439a.813.813 0 0 0-.428-.126.422.422 0 0 0-.096.01.267.267 0 0 0-.08.029.139.139 0 0 0-.053.048.116.116 0 0 0-.02.067c0 .033.01.062.03.086.02.024.045.045.076.062a.654.654 0 0 0 .105.046l.115.043a1.4 1.4 0 0 1 .186.086.592.592 0 0 1 .142.11c.04.041.07.09.09.146a.57.57 0 0 1 .033.201.539.539 0 0 1-.235.467.736.736 0 0 1-.246.106 1.377 1.377 0 0 1-.798-.06zm-1.503-.51l-.257-.864a1.24 1.24 0 0 1-.04-.231h-.013c-.006.075-.02.15-.042.224l-.26.872zm.853 1.028h-.573l-.167-.575h-.83l-.164.575h-.57l.85-2.582h.623zm-2.98-.102c-.17.091-.393.136-.668.136-.359 0-.641-.115-.847-.347-.206-.232-.308-.542-.308-.928 0-.412.115-.745.346-1.001.231-.256.532-.384.9-.384.229 0 .421.032.578.095v.558a.952.952 0 0 0-.536-.154.678.678 0 0 0-.531.228c-.135.152-.203.357-.203.617 0 .248.064.447.191.594a.644.644 0 0 0 .515.222c.205 0 .393-.055.564-.165v.53zm-3.978.102v-2.582h1.345v.473h-.82v.575h.763v.471h-.762v.59h.873v.473zm-4-2.148v.706h.23a.365.365 0 0 0 .274-.107.368.368 0 0 0 .106-.266c0-.223-.124-.333-.37-.333zm1.431 2.148h-.602l-.361-.665a2.531 2.531 0 0 0-.079-.135.774.774 0 0 0-.075-.101.312.312 0 0 0-.08-.065.187.187 0 0 0-.09-.023h-.14v.989h-.525v-2.582h.83c.565 0 .848.234.848.702 0 .09-.013.173-.038.25a.698.698 0 0 1-.27.364.802.802 0 0 1-.215.104v.007a.333.333 0 0 1 .1.059.75.75 0 0 1 .095.094 1.396 1.396 0 0 1 .162.238l.44.764zm-4.43-1.898c-.11.153-.165.354-.165.605 0 .255.055.456.165.605a.51.51 0 0 0 .43.222.515.515 0 0 0 .435-.216c.107-.145.16-.344.16-.6 0-.267-.051-.474-.155-.623a.495.495 0 0 0-.427-.222.517.517 0 0 0-.443.23zm-.4 1.573c-.21-.24-.313-.552-.313-.937 0-.407.105-.736.317-.987.213-.25.493-.377.843-.377a1 1 0 0 1 .801.36c.204.241.306.559.306.952 0 .404-.106.73-.317.977a1.036 1.036 0 0 1-.827.371c-.332 0-.602-.12-.81-.359zm-1.079-1.784h-.822v.634h.756v.472h-.756v1.003h-.526v-2.582h1.348zm-5.67 2v-.574a.974.974 0 0 0 .307.196c.11.044.221.066.334.066a.68.68 0 0 0 .173-.02.389.389 0 0 0 .124-.055.22.22 0 0 0 .098-.186.237.237 0 0 0-.04-.133.43.43 0 0 0-.106-.11 1.015 1.015 0 0 0-.16-.096 4.906 4.906 0 0 0-.2-.096 1.015 1.015 0 0 1-.406-.307.714.714 0 0 1-.134-.437c0-.134.024-.249.073-.345a.666.666 0 0 1 .199-.238.865.865 0 0 1 .292-.138c.11-.029.227-.043.35-.043.122 0 .23.008.323.024s.18.041.26.075v.536a.773.773 0 0 0-.128-.079.983.983 0 0 0-.425-.1.675.675 0 0 0-.162.018.406.406 0 0 0-.124.053.257.257 0 0 0-.078.082.21.21 0 0 0-.028.106c0 .044.01.082.031.116.02.034.05.067.088.097.038.03.084.06.138.09.054.03.115.06.184.09.093.043.176.09.25.138a.907.907 0 0 1 .19.164c.054.06.095.13.123.209a.798.798 0 0 1 .042.273.8.8 0 0 1-.074.362.635.635 0 0 1-.2.236.816.816 0 0 1-.295.13 1.788 1.788 0 0 1-.72.004 1.032 1.032 0 0 1-.3-.107zm-1.474.109l-.963-1.623a2.488 2.488 0 0 1-.118-.214h-.006c.008.091.013.23.013.417v1.42h-.497v-2.583h.567l.927 1.572c.043.071.081.142.118.211h.006a2.975 2.975 0 0 1-.013-.355v-1.427h.497v2.582zm-4.051-1.898c-.109.153-.163.354-.163.605 0 .255.054.456.163.605.108.148.25.222.426.222a.51.51 0 0 0 .432-.216c.106-.145.159-.344.159-.6 0-.267-.052-.474-.154-.623a.49.49 0 0 0-.424-.222.511.511 0 0 0-.44.23zm-.398 1.573c-.21-.24-.314-.552-.314-.937 0-.407.106-.736.32-.987.212-.25.494-.377.845-.377.332 0 .6.12.806.36.204.241.307.559.307.952 0 .404-.106.73-.32.977-.211.248-.488.371-.83.371-.333 0-.604-.12-.814-.359zm-1.041-1.807h-.193v1.682h.193v.45h-.908v-.45h.193v-1.682h-.193v-.45h.908zm-1.556.023h-.664v2.109h-.526v-2.109h-.66v-.473h1.85zm-2.659.985c0 .772-.327 1.158-.981 1.158-.636 0-.953-.377-.953-1.13v-1.486h.528v1.492c0 .416.148.624.444.624.29 0 .435-.2.435-.603v-1.513h.527zm-2.682 1.124h-1.389v-2.582h.526v2.11h.863zm-3.868-1.898c-.109.153-.163.354-.163.605 0 .255.054.456.163.605.108.148.25.222.426.222a.509.509 0 0 0 .432-.216c.106-.145.16-.344.16-.6 0-.267-.052-.474-.155-.623a.49.49 0 0 0-.424-.222.511.511 0 0 0-.44.23zm-.399 1.573c-.209-.24-.313-.552-.313-.937 0-.407.106-.736.318-.987.212-.25.493-.377.842-.377.33 0 .598.12.802.36.204.241.306.559.306.952 0 .404-.106.73-.318.977a1.035 1.035 0 0 1-.826.371c-.332 0-.602-.12-.81-.359zm-2.667.216v-.574a.974.974 0 0 0 .308.196c.11.044.221.066.334.066a.68.68 0 0 0 .173-.02.389.389 0 0 0 .123-.055.22.22 0 0 0 .098-.186.237.237 0 0 0-.038-.133.43.43 0 0 0-.107-.11 1.015 1.015 0 0 0-.16-.096 4.906 4.906 0 0 0-.2-.096 1.015 1.015 0 0 1-.406-.307.714.714 0 0 1-.134-.437c0-.134.024-.249.073-.345a.666.666 0 0 1 .199-.238.865.865 0 0 1 .291-.138c.11-.029.228-.043.351-.043.122 0 .23.008.323.024s.18.041.259.075v.536a.773.773 0 0 0-.127-.079.983.983 0 0 0-.425-.1.675.675 0 0 0-.163.018.406.406 0 0 0-.123.053.257.257 0 0 0-.078.082.21.21 0 0 0-.028.106c0 .044.01.082.03.116.021.034.05.067.09.097.037.03.083.06.137.09.054.03.115.06.184.09.093.043.176.09.25.138a.907.907 0 0 1 .19.164c.054.06.095.13.123.209a.798.798 0 0 1 .042.273.8.8 0 0 1-.074.362.635.635 0 0 1-.2.236.816.816 0 0 1-.295.13 1.788 1.788 0 0 1-.72.004 1.032 1.032 0 0 1-.3-.107zm-3.946.109v-2.582h.525v2.11h.863v.472zm-1.671-1.027l-.253-.865a1.258 1.258 0 0 1-.04-.231h-.013c-.005.075-.019.15-.04.224l-.256.872zm.862 1.027h-.573l-.166-.575h-.83l-.165.575h-.57l.85-2.582h.624zm-3.33-2.109v2.109h-.526v-2.109h-.66v-.473h1.85v.473zm-1.834-.023h-.195v1.682h.195v.45h-.918v-.45h.195v-1.682h-.195v-.45h.918zm-2.552 2.166c-.373 0-.668-.114-.884-.343-.216-.229-.324-.544-.324-.946 0-.404.118-.733.354-.988.235-.255.55-.383.94-.383.247 0 .465.038.652.113v.544a1.193 1.193 0 0 0-.658-.172.672.672 0 0 0-.53.234c-.138.156-.206.364-.206.625 0 .264.061.468.184.614a.619.619 0 0 0 .497.216c.125 0 .225-.02.298-.059v-.502h-.465v-.463h.99v1.294c-.227.144-.51.216-.848.216zm-1.925-2.166h-.195v1.682h.195v.45h-.918v-.45h.195v-1.682h-.195v-.45h.918zm-3.18 1.651h.261c.228 0 .407-.075.537-.225.13-.151.195-.356.195-.616 0-.245-.065-.438-.193-.578-.13-.14-.31-.211-.542-.211h-.258zm-.522.48v-2.581h.825c.826 0 1.238.419 1.238 1.258 0 .402-.113.723-.338.964-.225.24-.525.36-.9.36z"/></g><g><path fill="#006cb5" d="M9.079 7.52c.601 0 1.089.542 1.089 1.21 0 .668-.488 1.21-1.09 1.21-.6 0-1.088-.542-1.088-1.21 0-.668.488-1.21 1.089-1.21z"/></g><g><g><path fill="#006cb5" d="M7.198 1.2l-.122.118c-1.366.02-3.03 1.512-3.822 2.69-.946 1.409-1.54 3.097-1.24 5.355-.313-.005-.999.045-1.26-.035a8.51 8.51 0 0 1 .27-3.606C1.557 3.955 2.13 3.16 3.163 2.028l.485-.47C4.333.939 5.802.083 6.775.01l.423 1.189z"/></g><g><path fill="#006cb5" d="M8.185 4.007c-2.13.05-4.027 2.626-3.658 5.359-.307-.002-1.014.06-1.265-.042-.447-3.167 2.064-6.396 4.45-6.664z"/></g><g><path fill="#006cb5" d="M9.027 6.386c-1.128.213-2.008 1.53-2.001 2.986l-1.104-.001c-.025-1.286.212-1.927.754-2.755.411-.627 1.212-1.228 1.956-1.376l.395 1.146z"/></g><g><path fill="#006cb5" d="M7.07 1.356l.122-.156.018.12z"/></g></g><g><path fill="#4d4d60" d="M6.073 10.558c-.289 0-.523.26-.523.58 0 .322.234.581.523.581a.49.49 0 0 0 .337-.137l1.534.873v7.283h.388v-7.545l-1.74-.99a.645.645 0 0 0 .003-.064c0-.32-.234-.58-.522-.58zm1.375-.838c-.29 0-.526.26-.526.58 0 .321.236.581.526.581a.495.495 0 0 0 .339-.137l.758.43v8.575h.39v-8.837l-.966-.547a.608.608 0 0 0 .004-.064c0-.32-.235-.581-.525-.581z"/></g><g><path fill="#4d4d60" d="M12.06 10.558c-.29 0-.525.26-.525.58 0 .023.002.044.004.066l-1.747.99v7.553h.39v-7.292l1.54-.873c.091.086.21.137.338.137.29 0 .525-.26.525-.58 0-.32-.235-.58-.525-.58zm-1.377-.838c-.29 0-.523.26-.523.58a.61.61 0 0 0 .003.065l-.963.547v8.837h.389v-8.576l.756-.429c.091.086.21.137.338.137.29 0 .524-.26.524-.58 0-.32-.235-.581-.524-.581z"/></g><g><path fill="#4d4d60" d="M23.759 7.52c.601 0 1.089.542 1.089 1.21 0 .668-.488 1.21-1.09 1.21-.6 0-1.088-.542-1.088-1.21 0-.668.488-1.21 1.089-1.21z"/></g></g></g></g></svg>