<svg xmlns="http://www.w3.org/2000/svg" width="196" height="167" viewBox="0 0 196 167"><g><g><g><path fill="#a2f487" d="M5.889 50.425l93.788-10.573-2.861-6.302c-.124-1.203-1.202-2.032-2.405-1.908L7.05 41.801c-1.203.124-2.032 1.202-1.908 2.404z"/></g><g><g><path fill="#fda028" d="M45.906 156.813l9.577-28.319c.54-1.576-.829-3.151-2.487-2.82l-29.314 5.847c-1.617.332-2.28 2.28-1.203 3.524l4.52 5.141c.787.913.704 2.24-.208 3.027l-15.465 13.6c-.912.788-.995 2.156-.208 3.027l5.017 5.68c.788.912 2.156.995 3.027.207l15.466-13.6c.912-.787 2.239-.704 3.026.208l4.52 5.141c1.16 1.327 3.193.913 3.732-.663z"/></g><g><path fill="none" stroke="#022c43" stroke-miterlimit="20" stroke-width=".66" d="M43.294 154.203l9.578-28.319c.539-1.576-.83-3.151-2.488-2.82l-29.272 5.888c-1.617.332-2.28 2.28-1.203 3.525l4.52 5.14c.787.913.704 2.24-.208 3.028l-15.465 13.6c-.912.787-.995 2.155-.208 3.026l5.017 5.68c.788.913 2.156.996 3.027.208l15.466-13.6c.912-.788 2.239-.705 3.026.207l4.52 5.142c1.12 1.285 3.151.87 3.69-.705z"/></g></g><g><g><path fill="none" stroke="#022c43" stroke-linecap="round" stroke-linejoin="round" stroke-miterlimit="20" stroke-width=".66" d="M99.26 108.969l-87.527 10.117a2.054 2.054 0 0 1-2.28-1.825l-8.5-73.14a2.054 2.054 0 0 1 1.824-2.28l87.528-10.158a2.054 2.054 0 0 1 2.28 1.824l8.5 73.182a2.083 2.083 0 0 1-1.825 2.28z"/></g><g><path fill="none" stroke="#022c43" stroke-linecap="round" stroke-linejoin="round" stroke-miterlimit="20" stroke-width=".66" d="M1.75 51.087l69.616-8.417"/></g></g><g><g><path fill="none" stroke="#022c43" stroke-linecap="round" stroke-linejoin="round" stroke-miterlimit="20" stroke-width=".66" d="M13.442 39.93v0l-2.82-24.256c-.124-1.202.705-2.239 1.908-2.405L99.89 3.152c1.203-.124 2.24.705 2.405 1.908l2.363 20.4v0"/></g><g><path fill="none" stroke="#022c43" stroke-linecap="round" stroke-linejoin="round" stroke-miterlimit="20" stroke-width=".66" d="M11.41 22.557l69.616-8.417"/></g></g><g><g transform="rotate(-6.598 28.5 65)"><path fill="none" stroke="#022c43" stroke-linecap="round" stroke-linejoin="round" stroke-miterlimit="20" stroke-width=".66" d="M15.47 61.91v0h25.998v5.805H15.47v0z"/></g><g transform="rotate(-6.598 52.5 62)"><path fill="none" stroke="#022c43" stroke-linecap="round" stroke-linejoin="round" stroke-miterlimit="20" stroke-width=".66" d="M47.4 59.13v0h10.241v5.805H47.4v0z"/></g><g><path fill="none" stroke="#022c43" stroke-linecap="round" stroke-linejoin="round" stroke-miterlimit="20" stroke-width=".66" d="M16.26 80.323l32.797-3.773"/></g><g><path fill="none" stroke="#022c43" stroke-linecap="round" stroke-linejoin="round" stroke-miterlimit="20" stroke-width=".66" d="M17.38 89.777l13.766-1.617"/></g></g><g><path fill="none" stroke="#022c43" stroke-linecap="round" stroke-linejoin="round" stroke-miterlimit="20" stroke-width=".66" d="M21.69 104.451a2.57 2.57 0 1 0 0-5.141 2.57 2.57 0 0 0 0 5.141z"/></g><g><path fill="none" stroke="#022c43" stroke-linecap="round" stroke-linejoin="round" stroke-miterlimit="20" stroke-width=".66" d="M30.52 100.428l32.672-4.188"/></g><g><g><path fill="#fff" d="M74.267 149.56l80.064 11.444c3.15.456 6.095-1.741 6.55-4.892l15.508-108.3c.953-6.551 7.007-11.112 13.558-10.159L98.978 24.634C92.303 23.681 86.083 28.324 85.13 35L70.535 136.915l-.912 6.426c-.415 3.027 1.658 5.805 4.644 6.22z"/></g><g><path fill="none" stroke="#022c43" stroke-miterlimit="20" stroke-width=".66" d="M69.125 149.56v0l80.064 11.444c3.151.456 6.095-1.741 6.551-4.892l15.507-108.3c.954-6.551 7.008-11.112 13.559-10.159v0l-90.97-13.019c-6.675-.953-12.894 3.69-13.848 10.366L65.435 136.956v0l-.912 6.427a5.41 5.41 0 0 0 4.602 6.178z"/></g><g><path fill="none" stroke="#022c43" stroke-miterlimit="20" stroke-width=".66" d="M192.347 69.5v0l-23.717-3.4v0l2.53-17.58c.994-6.925 7.421-11.776 14.345-10.78l1.908.29c5.1.746 8.624 5.431 7.877 10.531z"/></g></g><g><g><path fill="#0069e0" d="M152.668 32.89h-10.822c-.622 0-1.244.29-1.658.788l-4.395 5.432c-.871 1.078-2.53 1.037-3.359-.041l-4.063-5.35a2.12 2.12 0 0 0-1.7-.828h-11.195a2.168 2.168 0 0 1-2.156-2.156V6.396c0-1.202.954-2.156 2.156-2.156h37.192c1.16 0 2.156.954 2.156 2.156v24.339a2.168 2.168 0 0 1-2.156 2.156z"/></g><g><g><path fill="none" stroke="#022c43" stroke-miterlimit="20" stroke-width=".66" d="M152.668 29.94h-10.822c-.622 0-1.244.29-1.658.788l-4.395 5.432c-.871 1.078-2.53 1.037-3.359-.041l-4.063-5.35a2.12 2.12 0 0 0-1.7-.828h-11.195a2.168 2.168 0 0 1-2.156-2.156V3.446c0-1.202.954-2.156 2.156-2.156h37.192c1.16 0 2.156.954 2.156 2.156v24.339a2.168 2.168 0 0 1-2.156 2.156z"/></g><g><path fill="none" stroke="#022c43" stroke-miterlimit="20" stroke-width=".66" d="M122.94 10.617h22.265"/></g><g><path fill="none" stroke="#022c43" stroke-miterlimit="20" stroke-width=".66" d="M122.94 19.157h13.973"/></g></g></g><g><g transform="rotate(-81.86 123 69)"><path fill="none" stroke="#022c43" stroke-miterlimit="20" stroke-width=".66" d="M104.88 43.42v0h36.154v52.034H104.88v0z"/></g><g><path fill="none" stroke="#022c43" stroke-miterlimit="20" stroke-width=".66" d="M96.32 71.69l51.538 7.38"/></g><g><path fill="none" stroke="#022c43" stroke-miterlimit="20" stroke-width=".66" d="M98.06 59.8l51.496 7.339"/></g><g><path fill="none" stroke="#022c43" stroke-miterlimit="20" stroke-width=".66" d="M134.091 52.75l-5.141 35.782"/></g><g><path fill="none" stroke="#022c43" stroke-miterlimit="20" stroke-width=".66" d="M116.931 50.3l-5.141 35.782"/></g></g><g><path fill="none" stroke="#022c43" stroke-miterlimit="20" stroke-width=".66" d="M92.51 99.31l51.165 7.297"/></g><g><path fill="none" stroke="#022c43" stroke-miterlimit="20" stroke-width=".66" d="M91.14 110.84l51.165 7.256"/></g><g><path fill="none" stroke="#022c43" stroke-miterlimit="20" stroke-width=".66" d="M118.09 127.21l21.85 3.11"/></g><g><path fill="#0069e0" d="M17.918 19.077a1.658 1.658 0 1 0 0-3.317 1.658 1.658 0 0 0 0 3.317z"/></g><g><path fill="#fff" d="M11.408 47.187a1.658 1.658 0 1 0 0-3.317 1.658 1.658 0 0 0 0 3.317z"/></g><g><path fill="#fff" d="M17.918 46.527a1.658 1.658 0 1 0 0-3.317 1.658 1.658 0 0 0 0 3.317z"/></g><g><path fill="#fff" d="M23.968 45.947a1.659 1.659 0 1 0 0-3.317 1.659 1.659 0 0 0 0 3.317z"/></g><g><path fill="#0069e0" d="M23.968 18.377a1.658 1.658 0 1 0 0-3.317 1.658 1.658 0 0 0 0 3.317z"/></g><g><path fill="#0069e0" d="M30.108 17.417a1.658 1.658 0 1 0 0-3.317 1.658 1.658 0 0 0 0 3.317z"/></g></g></g></svg>