<svg xmlns="http://www.w3.org/2000/svg" width="16" height="16" viewBox="0 0 16 16"><g><g><path fill="#fa0" d="M12.466 15.966a.757.757 0 0 1-.362-.09l-4.017-2.21-4.016 2.21a.756.756 0 0 1-.832-.065.848.848 0 0 1-.31-.813l.787-4.659L.471 7.03a.857.857 0 0 1-.197-.827.8.8 0 0 1 .638-.563l4.49-.687L7.378.707a.785.785 0 0 1 .71-.467c.301 0 .576.181.708.467l2 4.237 4.49.687a.8.8 0 0 1 .638.562.857.857 0 0 1-.197.828l-3.245 3.31.788 4.659a.848.848 0 0 1-.315.827.76.76 0 0 1-.489.15z"/></g><g><g><path fill="#34b233" d="M12.466 15.966a.757.757 0 0 1-.362-.09l-4.017-2.21-4.016 2.21a.756.756 0 0 1-.832-.065.848.848 0 0 1-.31-.813l.787-4.659L.471 7.03a.857.857 0 0 1-.197-.827.8.8 0 0 1 .638-.563l4.49-.687L7.378.707a.785.785 0 0 1 .71-.467c.301 0 .576.181.708.467l2 4.237 4.49.687a.8.8 0 0 1 .638.562.857.857 0 0 1-.197.828l-3.245 3.31.788 4.659a.848.848 0 0 1-.315.827.76.76 0 0 1-.489.15z"/></g></g></g></svg>