<svg xmlns="http://www.w3.org/2000/svg" width="166" height="145" viewBox="0 0 166 145"><g><g><path fill="none" stroke="#fff" stroke-dasharray="0 9.566" stroke-linecap="round" stroke-linejoin="round" stroke-miterlimit="20" stroke-width="3" d="M117.88 163.304l48.818-76.654"/></g><g><path fill="none" stroke="#fff" stroke-linecap="round" stroke-linejoin="round" stroke-miterlimit="20" stroke-width="3" d="M157.38 77.08v0"/></g><g transform="rotate(12 50.5 548)"><path fill="#ffb93e" d="M-28.175 136.782c-5.142-1.719-7.915-7.28-6.196-12.42l28.907-86.457c1.72-5.14 7.28-7.915 12.421-6.196 5.14 1.72 7.915 7.28 6.195 12.42l-28.907 86.457c-1.719 5.141-7.279 7.915-12.42 6.196"/></g><g transform="rotate(12 50.5 548)"><path fill="#fafdff" d="M21.518 108.635c7.163 2.342 14.867-1.566 17.209-8.729l39.38-120.458c2.343-7.163-1.566-14.868-8.728-17.209-7.163-2.342-14.867 1.566-17.21 8.73L12.79 91.425c-2.341 7.163 1.567 14.868 8.729 17.21"/></g></g></svg>