<svg xmlns="http://www.w3.org/2000/svg" width="454" height="274" viewBox="0 0 454 274"><g><g><path fill="#fafdff" d="M29.129 279.868s-58.36-62.629-9.87-130.434c43.024-60.162 93.185-56.05 129.987-31.635 15.675 10.398 60.866 1.281 99.33-59.935 52.454-83.483 234.278-32.85 201.126 95.59C433.66 215.61 498.53 217.869 465.475 280z"/></g><g><path fill="#afcdfb" d="M153.343 201.438s1.142 8.792-.566 8.896c-1.709.104-.541-9.885-.541-9.885s-8.124-4.382-11.43-4.27c0 0 4.653 8.795 2.97 8.49-1.682-.305-6.963-9.24-6.963-9.24s-8.486-2.042-10.176 2.784c-1.69 4.827.379 7.412 1.631 7.795 1.252.382 9.418.763 9.141 1.773-.277 1.01-5.891 2.32-8.906 1.217 0 0 2.877 8.279 7.354 8.133 4.477-.145 6.023-2.722 8.792-2.763 2.768-.041 4.736.794 3.312 1.428-1.423.634-6.055-.123-8.396 1.57-2.342 1.694-4.215 2.712-.134 3.775 4.08 1.063 11.53.991 13.21-1.988l.21-.373c-.106.248-.21.373-.21.373.735.474 1.748 2.588 2.441 4.205.096.274.252.654.486 1.172.093.233.167.424.219.558 1.232 3.603.074 9.63.074 9.63l.868.282c2.347-6.005-.765-11.237-.765-11.237-1.972-4.12-1.645-7.59-1.645-7.59s8.221-3.824 4.884-9.872c0 0-2.74-3.754-5.86-4.863"/></g><g><path fill="#cde0fb" d="M93.02 240.889c-.71-11.07 17.107-13.757 17.107-13.757s17.327 13.753 20.778 13.019c3.451-.735-12.563-14.71-12.563-14.71 6.2-2.873 25.232-.562 25.232-.562s5.907 21.043 9.075 19.464c3.168-1.578-6.162-18.36-6.162-18.36 6.843-.268 15.114 5.095 15.114 5.095 11.276 9.5-1.262 23.783-1.262 23.783s2.2 7.247 9.307 13.96c0 0 1.49 1.178 3.354 3.413l-1.692.59a17.526 17.526 0 0 0-.915-1.186l-.013-.015a104.728 104.728 0 0 0-.864-.94l-.001-.001c-.864-.852-1.469-1.493-1.874-1.966a.022.022 0 0 1-.004-.005c-2.636-2.699-6.284-6.142-8.07-6.507 0 0 .097-.335.097-.919l-.097.919c-.77 7.342-14.896 13.456-23.53 14.586-8.634 1.13-5.896-2.42-2.817-7.705 3.08-5.285 12.514-7.472 14.708-9.888 2.193-2.417-2.233-2.521-7.47-.22-5.236 2.3-6.084 8.727-14.488 12.606-8.404 3.879-20.619-10.48-20.619-10.48 6.636-.197 16.26-7.331 15.965-9.586-.295-2.255-16.152 3.52-18.846 3.754-2.695.234-8.739-3.313-9.45-14.382"/></g><g clip-path="url(#clip-B89DF910-3999-4649-AD1B-584FFF83AD68)"><path fill="#ffa412" d="M354 280h64V97h-64z"/></g><g clip-path="url(#clip-B89DF910-3999-4649-AD1B-584FFF83AD68)"><path fill="#ffb93e" d="M187 280h169V97H187z"/></g><g clip-path="url(#clip-B89DF910-3999-4649-AD1B-584FFF83AD68)"><path fill="#ffa412" d="M187 201h169v-12H187z"/></g><g clip-path="url(#clip-B89DF910-3999-4649-AD1B-584FFF83AD68)"><path fill="#fa9712" d="M354 201h64v-12h-64z"/></g><g clip-path="url(#clip-B89DF910-3999-4649-AD1B-584FFF83AD68)"><path fill="#f99746" d="M302.79 99.432s38.226-27.524 64.21-18.68l-5.36 5.547 2.415 9.323S335.161 85.195 302 101z"/></g><g clip-path="url(#clip-B89DF910-3999-4649-AD1B-584FFF83AD68)"><path fill="#f99746" d="M300 95s-6.818-.804-16.98-2.168c-26.98-3.622-77.514-11.2-86.585-18.212-14.252-11.014 19.52-57.796 34.14-64.29C245.192 3.844 300 95 300 95"/></g><g clip-path="url(#clip-B89DF910-3999-4649-AD1B-584FFF83AD68)"><path fill="#ed7d2b" d="M283 92h-.017c-25.897-3.367-74.404-10.412-83.11-16.93-3.932-10.467 6.269-11.32 13.692-12.057C220.983 62.277 283 92 283 92"/></g><g clip-path="url(#clip-B89DF910-3999-4649-AD1B-584FFF83AD68)"><path fill="#ed7d2b" d="M281 98s5.815-15.13 17.259-15.967C310.21 81.158 317 98 317 98z"/></g><g clip-path="url(#clip-B89DF910-3999-4649-AD1B-584FFF83AD68)"><path fill="#ffc261" d="M181 124h177V97H181z"/></g><g clip-path="url(#clip-B89DF910-3999-4649-AD1B-584FFF83AD68)"><path fill="#fa9712" d="M359 124h65V97h-65z"/></g><g clip-path="url(#clip-B89DF910-3999-4649-AD1B-584FFF83AD68)"><path fill="#f99746" d="M286 96.994s-33.652-10.612-56.36-3.596c-26.174 8.087-24.623 40.24-24.623 40.24l6.156-2.52 8.31 3.882s1.403-34.046 22.743-38.813c18.452-4.121 43.774.807 43.774.807"/></g><g clip-path="url(#clip-B89DF910-3999-4649-AD1B-584FFF83AD68)"><path fill="#ffa412" d="M255 280h12V97h-12z"/></g><g clip-path="url(#clip-B89DF910-3999-4649-AD1B-584FFF83AD68)"><path fill="#4a75cb" d="M251 279h30v-91h-30z"/></g><g clip-path="url(#clip-B89DF910-3999-4649-AD1B-584FFF83AD68)"><path fill="#739af0" d="M162 279h86v-91h-86z"/></g><g clip-path="url(#clip-B89DF910-3999-4649-AD1B-584FFF83AD68)"><path fill="#afcdfb" d="M162 240h86v-7h-86z"/></g><g clip-path="url(#clip-B89DF910-3999-4649-AD1B-584FFF83AD68)"><path fill="#88b3ff" d="M251 240h30v-7h-30z"/></g><g clip-path="url(#clip-B89DF910-3999-4649-AD1B-584FFF83AD68)"><path fill="#4a75cb" d="M224.514 185.228s25.625-13.067 43.486-8.102l-3.566 2.68 1.797 4.735S246.36 178.72 224 186z"/></g><g clip-path="url(#clip-B89DF910-3999-4649-AD1B-584FFF83AD68)"><path fill="#72a9f7" d="M222 184s-3.377-.416-8.411-1.123c-13.364-1.874-38.395-5.797-42.887-9.426-7.06-5.702 9.669-29.919 16.91-33.28C194.852 136.813 222 184 222 184"/></g><g clip-path="url(#clip-B89DF910-3999-4649-AD1B-584FFF83AD68)"><path fill="#72a9f7" d="M272.98 157.427C274.176 163.362 220 189 220 189s.986-2.713 2.59-6.962l.004-.007c5.857-15.516 19.967-51.524 24.604-51.026.466.05 1.01.219 1.62.49 7.12 3.19 23.061 20.467 24.162 25.932"/></g><g clip-path="url(#clip-B89DF910-3999-4649-AD1B-584FFF83AD68)"><path fill="#4a75cb" d="M246.77 135.769c-3.31 5.847-25.424 44.627-25.77 45.231 5.858-15.507 19.97-51.493 24.607-50.995 0 0 .919-.027 1.62.49.845.626 1.37 2.045-.458 5.274"/></g><g clip-path="url(#clip-B89DF910-3999-4649-AD1B-584FFF83AD68)"><path fill="#4a75cb" d="M211 183h-.01c-13.564-1.974-38.972-6.103-43.533-9.925-2.06-6.135 3.284-6.635 7.172-7.067C178.515 165.576 211 183 211 183"/></g><g clip-path="url(#clip-B89DF910-3999-4649-AD1B-584FFF83AD68)"><path fill="#4a75cb" d="M211 189s3.069-8.51 9.109-8.981C226.417 179.526 230 189 230 189z"/></g><g clip-path="url(#clip-B89DF910-3999-4649-AD1B-584FFF83AD68)"><path fill="#88b3ff" d="M161 201h90v-12h-90z"/></g><g clip-path="url(#clip-B89DF910-3999-4649-AD1B-584FFF83AD68)"><path fill="#3969b7" d="M250 201h34v-12h-34z"/></g><g clip-path="url(#clip-B89DF910-3999-4649-AD1B-584FFF83AD68)"><path fill="#4a75cb" d="M214 183.678s-17.449-6.512-29.223-2.206c-13.572 4.962-12.768 24.692-12.768 24.692l3.192-1.546L179.51 207s.727-20.892 11.792-23.817c9.568-2.529 22.698.495 22.698.495"/></g><g clip-path="url(#clip-B89DF910-3999-4649-AD1B-584FFF83AD68)"><path fill="#afcdfb" d="M198 280h7v-92h-7z"/></g><g clip-path="url(#clip-B89DF910-3999-4649-AD1B-584FFF83AD68)"><path fill="#233862" d="M108.652 148.857s-24.476 16.534-30.463 16.136C72.202 164.594 51 152.534 51 152.534l4.485-4.916s19.203 6.558 22.718 4.75c3.516-1.808 17.249-17.156 23.01-16.336 5.763.819 11.456 6.88 7.439 12.825"/></g><g clip-path="url(#clip-B89DF910-3999-4649-AD1B-584FFF83AD68)"><path fill="#233862" d="M120.07 281h6.734c.847-.54 1.603-1.773 1.841-3.612.33-2.54 2.76-3.925 3.287-6.002.525-2.077-2.17-5-2.17-5l-.45-.68-.47-.706-4.469 1.232s-.11 1.246-.178 2.833c-.049 1.146-.074 2.469-.02 3.63.132 2.77-.66 5.752-2.763 6.291-1.555.398-1.485 1.478-1.343 2.014"/></g><g clip-path="url(#clip-B89DF910-3999-4649-AD1B-584FFF83AD68)"><path fill="#233862" d="M81 281h16.467c.792-1.033.5-4.845.38-6.09-.024-.25-.041-.396-.041-.396s-5.623-4.807-6.396-1.126a4.792 4.792 0 0 1-.083.34c-.973 3.442-5.338 5.007-7.859 5.443-1.638.284-2.244 1.194-2.468 1.829"/></g><g clip-path="url(#clip-B89DF910-3999-4649-AD1B-584FFF83AD68)"><path fill="#f99746" d="M83 191.462s.966 10.55 2.102 23.234c1.544 17.23 3.4 38.392 3.584 42.401.317 6.962 1.591 18.098 1.591 18.098s3.02 2.646 9.067 1.53c0 0 5.388-15.896 6.927-32.716l.071-.83C107.774 226.055 110 190 110 190z"/></g><g clip-path="url(#clip-B89DF910-3999-4649-AD1B-584FFF83AD68)"><path fill="#ed7d2b" d="M83 190.488s.966 10.745 2.102 23.661L106.271 244l.071-.846C107.774 225.717 110 189 110 189z"/></g><g clip-path="url(#clip-B89DF910-3999-4649-AD1B-584FFF83AD68)"><path fill="#f99746" d="M86 190.968s15.01 38.644 24.878 56.804c9.87 18.16 12.954 23.228 12.954 23.228s5.654-2.323 6.168-3.906c0 0-3.774-35.06-10.383-43.606-3.735-4.83-8.122-19.322-8.327-24.39-.206-5.068-1.337-15.098-1.337-15.098z"/></g><g clip-path="url(#clip-B89DF910-3999-4649-AD1B-584FFF83AD68)"><path fill="#ffb27d" d="M96 135.065c5.851 2.689 17-1.277 17-1.277s-5.1-4.952-3.752-13.788l-5.16 3.268-3.505 2.219s-.17 1.54-.141 4.28c.008.72.028 1.524.07 2.406-2.783 1.134-4.512 2.892-4.512 2.892"/></g><g clip-path="url(#clip-B89DF910-3999-4649-AD1B-584FFF83AD68)"><path fill="#ed975d" d="M102.156 127.367s-.183.948-.152 2.633c3.907-.113 8.996-3.38 8.996-3.38-1.881-.46-3.576-.637-5.053-.619z"/></g><g clip-path="url(#clip-B89DF910-3999-4649-AD1B-584FFF83AD68)"><path fill="#ffb27d" d="M99.406 125.323s10.672 2.9 12.514-3.303c1.842-6.203 4.46-10.007-2.276-12.12-6.737-2.115-8.77-.089-9.926 1.843-1.157 1.931-3.041 12.665-.312 13.58"/></g><g clip-path="url(#clip-B89DF910-3999-4649-AD1B-584FFF83AD68)"><path fill="#2b478b" d="M83.385 186.6c-.297 2.83-.435 4.592-.369 4.661.16.175.354.291.59.32 2.213.245 8.508 2.307 14.027 2.409 4.65.116 8.882-.782 13.486-2.258.611-.195 2.033-.764 2.08-1.436.067-.733.12-1.804.188-3.15.234-4.685.629-12.742 2.234-21.896.295-1.704.543-3.402.745-5.078 1.507-12.487.388-23.775-4.008-28.096-.378-.356-3.06.606-5.526 1.5-2.28.827-4.444.68-6.427.004l-2.25 1.598c-2.752 2.06-5.84 4.944-7.588 9.684-1.49 4.034-2.955 11.46-4.188 19.19-.558 3.504-1.093 7.04-1.516 10.407l-.015.12c-.068.33-.11.697-.15 1.031-.078.598-.153 1.186-.227 1.765-.459 3.595-.83 6.802-1.086 9.225"/></g><g clip-path="url(#clip-B89DF910-3999-4649-AD1B-584FFF83AD68)"><path fill="#2b478b" d="M109.64 123s-.955-.293-.636-1.676c.318-1.383.528-3.217-.603-3.013-1.13.204-1.29 1.11-1.677.521-.387-.59-.136-2.837-3.365-3.403-3.23-.565-4.686.45-6.116-.434-1.43-.884-1.234-3.283-1.234-3.283s.331.907.949 1.26c0 0-2.104-3.919 1.097-6.02 3.202-2.103 5.99-.112 7.665.208 3.692.703 6.068 1.24 6.988 3.946.92 2.708-.399 9.736-3.069 11.894"/></g><g clip-path="url(#clip-B89DF910-3999-4649-AD1B-584FFF83AD68)"><path fill="#233862" d="M81 187.657c.477.082 8.765 1.468 14.4-1.99C101.204 182.108 108 161 108 161s-13.032 13.501-13.285 14.033c-.212.449-9.61 3.232-12.607 4.112A370.578 370.578 0 0 0 81 187.657"/></g><g clip-path="url(#clip-B89DF910-3999-4649-AD1B-584FFF83AD68)"><path fill="#ed7d2b" d="M15 176.088l64.088.912.912-64.088L15.912 112z"/></g><g clip-path="url(#clip-B89DF910-3999-4649-AD1B-584FFF83AD68)"><path fill="#f99746" d="M28 176.088l64.088.912.912-64.088L28.912 112z"/></g><g clip-path="url(#clip-B89DF910-3999-4649-AD1B-584FFF83AD68)"><path fill="#fff" d="M64.383 133.946c.086-6.198 4.278-11.034 10.402-10.945 6.184.09 10.3 5.11 10.214 11.245-.086 6.197-4.278 11.034-10.402 10.945-6.185-.09-10.299-5.171-10.214-11.245zm15.915 33.024l-7.216-.105-30.38-43.835 7.216.105zm-1.666-32.817c.042-2.975-1.258-5.473-3.805-5.51-2.425-.036-4.037 2.482-4.077 5.396-.041 2.913 1.258 5.473 3.804 5.51 2.426.035 4.038-2.483 4.078-5.396zm-40.63 21.601c.086-6.197 4.277-11.034 10.4-10.944 6.186.09 10.3 5.108 10.215 11.244-.086 6.198-4.278 11.034-10.402 10.945-6.184-.09-10.298-5.171-10.214-11.245zm14.248.208c.042-2.975-1.257-5.474-3.804-5.51-2.426-.036-4.038 2.482-4.078 5.395-.04 2.913 1.258 5.473 3.805 5.51 2.425.036 4.037-2.482 4.077-5.395z"/></g><g clip-path="url(#clip-B89DF910-3999-4649-AD1B-584FFF83AD68)"><path fill="#ffb27d" d="M61.74 179c1.939-.051 4.427-1.216 5.225-1.77 1.348-.937 2.035-1.845 2.035-1.845l-.205-1.785-.245-2.131s-.15-.033-.399-.07a8.23 8.23 0 0 0-.992-.082s-.638.27-1.166-.39c-.527-.658-1.499-1.105-2.234-.858-.735.246-2.316.016-2.366.376-.124.868 2.18.71 2.448 1.255.244.493.022.826-.023.886l-.01.01c-1.348 1.9-5.988 2.59-5.803 4.098.07.563 2.913 2.328 3.734 2.306"/></g><g clip-path="url(#clip-B89DF910-3999-4649-AD1B-584FFF83AD68)"><path fill="#2b478b" d="M112.996 146.548s-11.655 26.62-16.863 29.157c-5.209 2.537-28.976.565-28.976.565L67 171.726s20.47-4.005 22.445-7.322c1.976-3.316 5.294-23.682 10.538-25.734 5.244-2.052 13.212.619 13.013 7.878"/></g><g clip-path="url(#clip-B89DF910-3999-4649-AD1B-584FFF83AD68)"><path fill="#ffb93e" d="M468.925 219.93a20.629 20.629 0 0 1-1.683.924c-9.999 4.91-22.194 1.141-27.63-8.718-5.184-9.405-2.397-21.053 6.11-27.17a21.117 21.117 0 0 1 10.057-3.85 21.068 21.068 0 0 1 11.463 2.03 20.898 20.898 0 0 1 9.146 8.718c5.45 9.888 2.091 22.254-7.463 28.065"/></g><g clip-path="url(#clip-B89DF910-3999-4649-AD1B-584FFF83AD68)"><path fill="#ffa412" d="M458.016 220a18.007 18.007 0 0 1-15.772-9.312 17.883 17.883 0 0 1-1.527-13.69 17.878 17.878 0 0 1 8.597-10.759 18.006 18.006 0 0 1 8.67-2.239 18.007 18.007 0 0 1 15.772 9.312 17.884 17.884 0 0 1 1.527 13.69 17.878 17.878 0 0 1-8.597 10.759zm-.027-34.926c-2.835 0-5.655.728-8.154 2.106a16.816 16.816 0 0 0-8.087 10.12 16.822 16.822 0 0 0 1.436 12.877 16.939 16.939 0 0 0 14.837 8.76c2.835 0 5.655-.73 8.154-2.107a16.816 16.816 0 0 0 8.087-10.12 16.821 16.821 0 0 0-1.436-12.877z"/></g><g clip-path="url(#clip-B89DF910-3999-4649-AD1B-584FFF83AD68)"><path fill="#ffa412" d="M458.5 189l4.172 8.888 9.328 1.425-6.75 6.918 1.594 9.769-8.344-4.612-8.344 4.612 1.594-9.769-6.75-6.918 9.328-1.425z"/></g><g clip-path="url(#clip-B89DF910-3999-4649-AD1B-584FFF83AD68)"><path fill="#fff" d="M273.489 17a8.438 8.438 0 0 1-5.643-2.154 8.443 8.443 0 0 1-2.832-5.856 8.443 8.443 0 0 1 2.14-6.144A8.444 8.444 0 0 1 273.01.015a8.44 8.44 0 0 1 6.144 2.139 8.444 8.444 0 0 1 2.832 5.857 8.444 8.444 0 0 1-2.14 6.143 8.444 8.444 0 0 1-5.856 2.831zm.016-16.493a7.936 7.936 0 0 0-5.975 2.674 7.934 7.934 0 0 0-2.01 5.774 7.934 7.934 0 0 0 2.662 5.504 7.934 7.934 0 0 0 5.773 2.01 7.935 7.935 0 0 0 5.504-2.66 7.934 7.934 0 0 0 2.01-5.774 7.936 7.936 0 0 0-2.66-5.504z"/></g><g clip-path="url(#clip-B89DF910-3999-4649-AD1B-584FFF83AD68)"><path fill="#fff" d="M270.024 2l2.868 2.683 3.93-.744-1.775 3.444L277 10.737l-3.965-.554L270.312 13l-.676-3.787L266 7.6l3.547-1.786z"/></g><g clip-path="url(#clip-B89DF910-3999-4649-AD1B-584FFF83AD68)"><path fill="#cde0fb" d="M251.172 272.746a16.67 16.67 0 0 1-1.036 1.16c-6.311 6.443-16.638 6.85-23.445.787-6.492-5.784-7.503-15.429-2.656-22.39a17.064 17.064 0 0 1 2.287-2.659 16.8 16.8 0 0 1 1.66-1.382 16.772 16.772 0 0 1 2.696-1.61 17.058 17.058 0 0 1 9.299-1.538c3.351.39 6.62 1.778 9.331 4.193 6.826 6.081 7.593 16.428 1.864 23.44"/></g><g clip-path="url(#clip-B89DF910-3999-4649-AD1B-584FFF83AD68)"><path fill="#afcdfb" d="M238.481 278a14.394 14.394 0 0 1-9.626-3.674 14.403 14.403 0 0 1-4.83-9.99 14.403 14.403 0 0 1 3.649-10.48 14.405 14.405 0 0 1 9.99-4.83 14.397 14.397 0 0 1 10.481 3.648 14.404 14.404 0 0 1 4.83 9.991 14.406 14.406 0 0 1-3.65 10.48 14.405 14.405 0 0 1-9.99 4.83zm.037-28.134c-.268 0-.535.007-.803.023a13.546 13.546 0 0 0-9.396 4.542 13.545 13.545 0 0 0-3.43 9.854 13.544 13.544 0 0 0 4.541 9.395 13.543 13.543 0 0 0 9.855 3.432 13.545 13.545 0 0 0 9.395-4.542 13.544 13.544 0 0 0 3.432-9.855 13.545 13.545 0 0 0-4.542-9.395z"/></g><g clip-path="url(#clip-B89DF910-3999-4649-AD1B-584FFF83AD68)"><path fill="#afcdfb" d="M235.145 250l6.518 6.585 8.933-1.826-4.034 8.453 4.438 8.233-9.01-1.36-6.191 6.915-1.535-9.294-8.264-3.96 8.062-4.384z"/></g><g clip-path="url(#clip-B89DF910-3999-4649-AD1B-584FFF83AD68)"><path fill="#f99746" d="M332.859 253s2.062 1.692 4.092 1.658c0 0 .271 1.85-.463 2.342 0 0-3.473-.46-4.31-1.379 0 0-.702-2.206.681-2.621"/></g></g></svg>