<svg xmlns="http://www.w3.org/2000/svg" width="50" height="50" viewBox="0 0 50 50"><defs><clipPath id="h6oya"><path fill="#fff" d="M25 50c13.807 0 25-11.193 25-25S38.807 0 25 0 0 11.193 0 25s11.193 25 25 25z"/></clipPath></defs><g><g opacity=".7"><path fill="none" stroke="#fff" stroke-miterlimit="20" stroke-width="2" d="M25 50c13.807 0 25-11.193 25-25S38.807 0 25 0 0 11.193 0 25s11.193 25 25 25z" clip-path="url(&quot;#h6oya&quot;)"/></g><g opacity=".7" transform="matrix(-1 0 0 1 50 0)"><g opacity=".7"><path fill="#fff" d="M33.896 24.73l-4-3.646a.334.334 0 0 0-.365-.052.302.302 0 0 0-.198.302v2.333h-13a.324.324 0 0 0-.24.094.325.325 0 0 0-.093.24v2c0 .097.031.177.094.24a.325.325 0 0 0 .24.093h13v2.334c0 .139.066.24.197.302a.325.325 0 0 0 .365-.063l4-3.688a.34.34 0 0 0 0-.489z"/></g></g></g></svg>