<svg xmlns="http://www.w3.org/2000/svg" width="1440" height="409" viewBox="0 0 1440 409"><defs><clipPath id="jqaca"><path d="M1198 72.71h142.284v141.874H1198z"/></clipPath></defs><g><g><path fill="#0069e0" d="M0 62h1440v347H0z"/></g><g opacity=".2"><path fill="#ababab" d="M392 21v43.496L389 67V23.504z"/></g><g opacity=".2"><path fill="#ababab" d="M386 27v43.496L383 73V29.503z"/></g><g opacity=".2"><path fill="#ababab" d="M380 33v43.496L377 79V35.503z"/></g><g opacity=".2"><path fill="#ababab" d="M374 39v43.497L371 85V41.503z"/></g><g opacity=".2"><path fill="#ababab" d="M368 45v43.496L365 91V47.504z"/></g><g opacity=".2"><path fill="#ababab" d="M361 51v43.496L358 97V53.504z"/></g><g opacity=".2"><path fill="#ababab" d="M355 57v43.496L352 103V59.503z"/></g><g opacity=".2"><path fill="#ababab" d="M349 64v43.497L346 110V66.503z"/></g><g opacity=".2"><path fill="#ababab" d="M343 70v43.496L340 116V72.504z"/></g><g opacity=".2"><path fill="#ababab" d="M334 78.504V122l3-2.504V76z"/></g><g opacity=".2"><path fill="#ababab" d="M38 327l-3 2.503V373l3-2.504z"/></g><g opacity=".2"><path fill="#ababab" d="M31 333v43.496L28 379v-43.497z"/></g><g opacity=".2"><path fill="#ababab" d="M25 339v43.496L22 385v-43.496z"/></g><g opacity=".2"><path fill="#ababab" d="M19 346v43.496L16 392v-43.496z"/></g><g opacity=".2"><path fill="#ababab" d="M13 352v43.496L10 398v-43.497z"/></g><g clip-path="url(#clip-FDDE119A-CA95-4828-99DB-F6E3B2693CF5)" opacity=".3"><path fill="#fff" d="M1350.06 216.493a.706.706 0 0 1-.502-1.206l117.85-117.28a.71.71 0 0 1 1.002 0 .701.701 0 0 1 0 .998l-117.848 117.282a.714.714 0 0 1-.502.206"/></g><g clip-path="url(#clip-51A52A09-DDB4-427A-B048-5B6D833F545F)" opacity=".3"><path fill="#fff" d="M1227.708 354.584a.707.707 0 0 1-.501-1.206l140.87-140.462a.71.71 0 0 1 1 0 .705.705 0 0 1 0 .999L1228.21 354.378a.712.712 0 0 1-.5.206"/></g><g opacity=".3"><path fill="#fff" d="M1313.702 295a.703.703 0 0 1-.496-1.198l34.596-34.596a.7.7 0 0 1 .992 0 .7.7 0 0 1 0 .992l-34.596 34.597a.704.704 0 0 1-.496.205"/></g><g opacity=".3"><path fill="#fff" d="M1368.695 304a.697.697 0 0 1-.492-1.187l19.61-19.61a.695.695 0 0 1 .984.983l-19.61 19.611a.698.698 0 0 1-.492.203"/></g><g opacity=".4"><g opacity=".4"/><g clip-path="url(#jqaca)" opacity=".4"><path fill="#fff" d="M1198.708 214.584a.707.707 0 0 1-.501-1.206l140.87-140.462a.71.71 0 0 1 1 0 .705.705 0 0 1 0 .999L1199.21 214.378a.712.712 0 0 1-.5.206"/></g></g><g opacity=".4"><path fill="#fff" d="M1284.702 155a.703.703 0 0 1-.496-1.198l34.596-34.596a.7.7 0 0 1 .992 0 .7.7 0 0 1 0 .992l-34.596 34.597a.704.704 0 0 1-.496.205"/></g><g opacity=".4"><path fill="#fff" d="M1339.695 164a.697.697 0 0 1-.492-1.187l19.61-19.61a.695.695 0 0 1 .984.983l-19.61 19.611a.698.698 0 0 1-.492.203"/></g><g opacity=".2"><path fill="#fff" d="M226 0l-97 96.57V148l97-96.57z"/></g></g></svg>