<?xml version="1.0" encoding="UTF-8"?>
<svg width="100%" height="100%" viewBox="0 0 1508 703" version="1.1" xmlns="http://www.w3.org/2000/svg" xmlns:xlink="http://www.w3.org/1999/xlink">
    <title>Group 28</title>
    <defs>
        <polygon id="path-1" points="0.353136047 0.796235294 119.621116 0.796235294 119.621116 119.488941 0.353136047 119.488941"></polygon>
        <polygon id="path-3" points="0 0.714423529 142.283938 0.714423529 142.283938 142.588235 0 142.588235"></polygon>
        <polygon id="path-5" points="0.353136047 0.796235294 119.621116 0.796235294 119.621116 119.488941 0.353136047 119.488941"></polygon>
        <polygon id="path-7" points="0 0.714423529 142.283938 0.714423529 142.283938 142.588235 0 142.588235"></polygon>
    </defs>
    <g id="Page-1" stroke="none" stroke-width="1" fill="none" fill-rule="evenodd">
        <g id="Group-28">
            <g id="Group-14" transform="translate(373.000000, 45.000000)" fill="#FFFFFF">
                <polygon id="Fill-1" points="77 0 74 2.50275196 74 46 77 43.4958645"></polygon>
                <polygon id="Fill-2" points="70 6 70 49.4958645 67 52 67 8.50275196"></polygon>
                <polygon id="Fill-3" points="64 12 64 55.4958645 61 58 61 14.5041355"></polygon>
                <polygon id="Fill-4" points="58 19 58 62.4958645 55 65 55 21.5041355"></polygon>
                <polygon id="Fill-5" points="52 25 52 68.4958645 49 71 49 27.502752"></polygon>
                <polygon id="Fill-6" points="46 31 46 74.4958645 43 77 43 33.502752"></polygon>
                <polygon id="Fill-7" points="40 37 40 80.497248 37 83 37 39.502752"></polygon>
                <polygon id="Fill-8" points="34 43 34 86.4958645 31 89 31 45.5041355"></polygon>
                <polygon id="Fill-9" points="27 49 27 92.4958645 24 95 24 51.5041355"></polygon>
                <polygon id="Fill-10" points="21 55 21 98.4958645 18 101 18 57.502752"></polygon>
                <polygon id="Fill-11" points="15 62 15 105.497248 12 108 12 64.502752"></polygon>
                <polygon id="Fill-12" points="9 68 9 111.495865 6 114 6 70.5041355"></polygon>
                <polygon id="Fill-13" points="0 76.5040602 0 120 3 117.49594 3 74"></polygon>
            </g>
            <g id="Group-14-Copy" transform="translate(0.000000, 370.000000)" fill="#FFFFFF">
                <polygon id="Fill-1" points="77 0 74 2.50275196 74 46 77 43.4958645"></polygon>
                <polygon id="Fill-2" points="70 6 70 49.4958645 67 52 67 8.50275196"></polygon>
                <polygon id="Fill-3" points="64 12 64 55.4958645 61 58 61 14.5041355"></polygon>
                <polygon id="Fill-4" points="58 19 58 62.4958645 55 65 55 21.5041355"></polygon>
                <polygon id="Fill-5" points="52 25 52 68.4958645 49 71 49 27.502752"></polygon>
                <polygon id="Fill-6" points="46 31 46 74.4958645 43 77 43 33.502752"></polygon>
                <polygon id="Fill-7" points="40 37 40 80.497248 37 83 37 39.502752"></polygon>
                <polygon id="Fill-8" points="34 43 34 86.4958645 31 89 31 45.5041355"></polygon>
                <polygon id="Fill-9" points="27 49 27 92.4958645 24 95 24 51.5041355"></polygon>
                <polygon id="Fill-10" points="21 55 21 98.4958645 18 101 18 57.502752"></polygon>
                <polygon id="Fill-11" points="15 62 15 105.497248 12 108 12 64.502752"></polygon>
                <polygon id="Fill-12" points="9 68 9 111.495865 6 114 6 70.5041355"></polygon>
                <polygon id="Fill-13" points="0 76.5040602 0 120 3 117.49594 3 74"></polygon>
            </g>
            <g id="Group-11" transform="translate(1266.000000, 140.000000)">
                <g id="Group-3" transform="translate(122.000000, 0.000000)">
                    <mask id="mask-2" fill="white">
                        <use xlink:href="#path-1"></use>
                    </mask>
                    <g id="Clip-2"></g>
                    <path d="M1.06279302,119.488941 C0.881211628,119.488941 0.699630233,119.419765 0.560606977,119.282824 C0.28397907,119.006118 0.28397907,118.56 0.560606977,118.283294 L118.411188,1.00235294 C118.689235,0.727058824 119.137514,0.727058824 119.412723,1.00235294 C119.69077,1.27905882 119.69077,1.72517647 119.412723,2.00047059 L1.56497907,119.282824 C1.42595581,119.419765 1.24437442,119.488941 1.06279302,119.488941" id="Fill-1" fill="#FFFFFF" mask="url(#mask-2)"></path>
                </g>
                <g id="Group-6" transform="translate(0.000000, 115.000000)">
                    <mask id="mask-4" fill="white">
                        <use xlink:href="#path-3"></use>
                    </mask>
                    <g id="Clip-5"></g>
                    <path d="M0.707920792,142.588659 C0.526693069,142.588659 0.345465347,142.519482 0.206712871,142.382541 C-0.0693762376,142.105835 -0.0693762376,141.659718 0.206712871,141.383012 L141.075871,0.920894118 C141.35196,0.6456 141.799366,0.6456 142.076871,0.920894118 C142.35296,1.19618824 142.35296,1.64371765 142.076871,1.91901176 L1.20912871,142.382541 C1.07037624,142.519482 0.889148515,142.588659 0.707920792,142.588659" id="Fill-4" fill="#FFFFFF" mask="url(#mask-4)"></path>
                </g>
                <path d="M86.7015514,198 C86.522044,198 86.3425366,197.931282 86.2051012,197.795247 C85.9316329,197.520374 85.9316329,197.077211 86.2051012,196.802337 L120.802349,162.206155 C121.07722,161.931282 121.520379,161.931282 121.793847,162.206155 C122.068718,162.479626 122.068718,162.922789 121.793847,163.197663 L87.1980016,197.795247 C87.0605662,197.931282 86.8810588,198 86.7015514,198" id="Fill-7" fill="#FFFFFF"></path>
                <path d="M141.695367,207 C141.517442,207 141.339517,206.931887 141.203293,206.797051 C140.932236,206.524599 140.932236,206.08534 141.203293,205.812888 L160.81395,186.203296 C161.085007,185.932235 161.52565,185.932235 161.796707,186.203296 C162.067764,186.474358 162.067764,186.915008 161.796707,187.18607 L142.18744,206.797051 C142.051216,206.931887 141.873291,207 141.695367,207" id="Fill-9" fill="#FFFFFF"></path>
            </g>
            <g id="Group-11-Copy" transform="translate(802.000000, 0.000000)">
                <g id="Group-14" opacity="0.600000024" transform="translate(0.000000, 583.000000)" fill="#FFFFFF">
                    <polygon id="Fill-1" points="77 0 74 2.50275196 74 46 77 43.4958645"></polygon>
                    <polygon id="Fill-2" points="70 6 70 49.4958645 67 52 67 8.50275196"></polygon>
                    <polygon id="Fill-3" points="64 12 64 55.4958645 61 58 61 14.5041355"></polygon>
                    <polygon id="Fill-4" points="58 19 58 62.4958645 55 65 55 21.5041355"></polygon>
                    <polygon id="Fill-5" points="52 25 52 68.4958645 49 71 49 27.502752"></polygon>
                    <polygon id="Fill-6" points="46 31 46 74.4958645 43 77 43 33.502752"></polygon>
                    <polygon id="Fill-7" points="40 37 40 80.497248 37 83 37 39.502752"></polygon>
                    <polygon id="Fill-8" points="34 43 34 86.4958645 31 89 31 45.5041355"></polygon>
                    <polygon id="Fill-9" points="27 49 27 92.4958645 24 95 24 51.5041355"></polygon>
                    <polygon id="Fill-10" points="21 55 21 98.4958645 18 101 18 57.502752"></polygon>
                    <polygon id="Fill-11" points="15 62 15 105.497248 12 108 12 64.502752"></polygon>
                    <polygon id="Fill-12" points="9 68 9 111.495865 6 114 6 70.5041355"></polygon>
                    <polygon id="Fill-13" points="0 76.5040602 0 120 3 117.49594 3 74"></polygon>
                </g>
                <g id="Group-3" transform="translate(557.000000, 0.000000)">
                    <mask id="mask-6" fill="white">
                        <use xlink:href="#path-5"></use>
                    </mask>
                    <g id="Clip-2"></g>
                    <path d="M1.06279302,119.488941 C0.881211628,119.488941 0.699630233,119.419765 0.560606977,119.282824 C0.28397907,119.006118 0.28397907,118.56 0.560606977,118.283294 L118.411188,1.00235294 C118.689235,0.727058824 119.137514,0.727058824 119.412723,1.00235294 C119.69077,1.27905882 119.69077,1.72517647 119.412723,2.00047059 L1.56497907,119.282824 C1.42595581,119.419765 1.24437442,119.488941 1.06279302,119.488941" id="Fill-1" fill="#FFFFFF" mask="url(#mask-6)"></path>
                </g>
                <g id="Group-6" transform="translate(435.000000, 115.000000)">
                    <mask id="mask-8" fill="white">
                        <use xlink:href="#path-7"></use>
                    </mask>
                    <g id="Clip-5"></g>
                    <path d="M0.707920792,142.588659 C0.526693069,142.588659 0.345465347,142.519482 0.206712871,142.382541 C-0.0693762376,142.105835 -0.0693762376,141.659718 0.206712871,141.383012 L141.075871,0.920894118 C141.35196,0.6456 141.799366,0.6456 142.076871,0.920894118 C142.35296,1.19618824 142.35296,1.64371765 142.076871,1.91901176 L1.20912871,142.382541 C1.07037624,142.519482 0.889148515,142.588659 0.707920792,142.588659" id="Fill-4" fill="#FFFFFF" mask="url(#mask-8)"></path>
                </g>
                <path d="M521.701551,198 C521.522044,198 521.342537,197.931282 521.205101,197.795247 C520.931633,197.520374 520.931633,197.077211 521.205101,196.802337 L555.802349,162.206155 C556.07722,161.931282 556.520379,161.931282 556.793847,162.206155 C557.068718,162.479626 557.068718,162.922789 556.793847,163.197663 L522.198002,197.795247 C522.060566,197.931282 521.881059,198 521.701551,198" id="Fill-7" fill="#FFFFFF"></path>
                <path d="M576.695367,207 C576.517442,207 576.339517,206.931887 576.203293,206.797051 C575.932236,206.524599 575.932236,206.08534 576.203293,205.812888 L595.81395,186.203296 C596.085007,185.932235 596.52565,185.932235 596.796707,186.203296 C597.067764,186.474358 597.067764,186.915008 596.796707,187.18607 L577.18744,206.797051 C577.051216,206.931887 576.873291,207 576.695367,207" id="Fill-9" fill="#FFFFFF"></path>
            </g>
            <polygon id="Fill-1-Copy" fill="#FFFFFF" points="265 43 168 139.569066 168 191 265 94.4309341"></polygon>
        </g>
    </g>
</svg>